# xmcd
#
# Track frame offsets: 
#        150
#        17485
#        46290
#        72329
#        100834
#        128571
#        140744
#        178357
#        195414
#        224123
#        242091
#        267001
#        297287
#        315065
#        333231
#
# Disc length: 4634 seconds
#
# Revision: 0
# Processed by: cddbd v1.5.2PL0 Copyright (c) Steve Scherf et al.
# Submitted via: ExactAudioCopy v0.95b4
#
DISCID=dc12180f
DTITLE=Various Artist - Poolposition 2005-01
DYEAR=2005
DGENRE=
TTITLE0=Dance United - Help asia! (vinylshakerz screen cut)
TTITLE1=Dance United - Help asia! (ziggy x mix)
TTITLE2=Alex Megane - Hurricane (original club mix)
TTITLE3=Nation Grooves feat. Lane - Walking in the ran (clubticket rem
TTITLE3=ix)
TTITLE4=Global Deejays - What a feeling (clubhouse mix)
TTITLE5=The lost brothers - Cry little sister "I need U know" (origina
TTITLE5=l radio mix)
TTITLE6=The lost brothers - Cry little sister "I need U know" (origina
TTITLE6=l club mix)
TTITLE7=Mario Lopez - Angel eyes (radio mix)
TTITLE8=Mario Lopez - Sanity (kan cold remix)
TTITLE9=Wix - Smells like teen spirit (radio edit)
TTITLE10=Wix - Smells like teen spirit (remix)
TTITLE11=Kasa - Stay (easyt rockerz club mix)
TTITLE12=Rico Fernandez and Corban Dallas - U got me
TTITLE13=Bob Sonic feat Mary M - Sunny 2005 (bobﬂs clubmix)
TTITLE14=Murphy Brown - Don¥t stop the rock 2.5
EXTD=
EXTT0=
EXTT1=
EXTT2=
EXTT3=
EXTT4=
EXTT5=
EXTT6=
EXTT7=
EXTT8=
EXTT9=
EXTT10=
EXTT11=
EXTT12=
EXTT13=
EXTT14=
PLAYORDER=
